<?xml version="1.0" encoding="utf-8"?>
<!-- Generator: Adobe Illustrator 24.3.0, SVG Export Plug-In . SVG Version: 6.00 Build 0)  -->
<svg version="1.1" id="Layer_1" xmlns="http://www.w3.org/2000/svg" xmlns:xlink="http://www.w3.org/1999/xlink" x="0px" y="0px"
	 viewBox="0 0 318.8 81.6" style="enable-background:new 0 0 318.8 81.6;" xml:space="preserve">
<style type="text/css">
	.st0{fill:#333333;}
	.st1{fill:url(#SVGID_1_);}
	.st2{fill:url(#SVGID_2_);}
	.st3{fill:url(#SVGID_3_);}
	.st4{fill:url(#SVGID_4_);}
	.st5{fill:url(#SVGID_5_);}
	.st6{fill:#F49739;}
	.st7{fill:url(#SVGID_6_);}
	.st8{fill:url(#SVGID_7_);}
	.st9{fill:url(#SVGID_8_);}
	.st10{fill:url(#SVGID_9_);}
	.st11{fill:url(#SVGID_10_);}
	.st12{fill:url(#SVGID_11_);}
	.st13{fill:url(#SVGID_12_);}
	.st14{fill:url(#SVGID_13_);}
	.st15{fill:url(#SVGID_14_);}
	.st16{fill:url(#SVGID_15_);}
	.st17{fill:url(#SVGID_16_);}
</style>
<g id="Layer_2_1_">
	<g id="Layer_1-2">
		<path class="st0" d="M0,12.2v59.7h24.1l1.6-10.7H13.9V46.3h11.5V36.1H13.9V22.9h21.4V12.2H0z"/>
		<path class="st0" d="M62,57.1l-5.2-34.2l-1.6-10.7H33l-1.6,10.7l-5.8,38.3h1.8v10.7H38l1.6-14.7h8.8l1.6,14.7h14.2L62,57.1z
			 M40.9,47.3l3.3-28.2l3,28.2H40.9z"/>
		<path class="st0" d="M90.6,21.7v-9.5H52.3v10.7h23.8L62,57.1l-1.6,4v10.7h30.2V61.2H74.5l15.8-38.7L90.6,21.7z"/>
		<path class="st0" d="M104.2,61.2V46.3h11.6V36.1h-11.6V22.9h12.3V12.2H90.3v59.7h27.4V61.2H104.2z"/>
		
			<linearGradient id="SVGID_1_" gradientUnits="userSpaceOnUse" x1="126.35" y1="39.8223" x2="160.63" y2="39.8223" gradientTransform="matrix(1 0 0 -1 0 81.8898)">
			<stop  offset="0" style="stop-color:#FAB200"/>
			<stop  offset="1" style="stop-color:#F39200"/>
		</linearGradient>
		<path class="st1" d="M158.5,41.3c-0.2-0.3-0.5-0.6-0.8-0.8c-1-1-2.1-1.8-3.4-2.3c-1.2-0.6-2.4-1-3.6-1.4c-0.8-0.2-2-0.5-3.4-0.9
			c-4.9-1.3-7.4-3.4-7.4-6.3v-3.8c0-1.6,0.2-2.7,0.8-3.2c0.8-0.7,1.9-1,3-0.9c1.5,0,2.5,0.3,3,1c0.6,1.1,0.9,2.4,0.8,3.7v3.7h11.9
			l0.4-2.9v-1.8c0.1-2.3-0.1-4.7-0.6-6.9c-0.3-1.1-0.7-2-1.4-2.9c-0.1-0.3-0.3-0.5-0.5-0.7c-1.4-1.3-3-2.2-4.9-2.6
			c-2.6-0.6-5.3-0.9-8-0.8h-4c-5.1,0-8.8,1-10.8,3.1s-3.1,5.8-3.1,11.2v5.5c0,4.2,0.7,7.3,2.1,9.3c1.4,1.9,4.1,3.5,8,4.6
			c0.9,0.3,2.1,0.5,3.5,0.9c3.3,0.7,5.4,1.6,6.3,2.7c0.4,0.5,0.7,1,0.8,1.6c0.2,0.9,0.3,1.9,0.3,2.9v4.2c0,1.7-0.3,2.9-0.9,3.5
			s-1.6,0.9-3.2,0.9c-1.1,0.1-2.3-0.3-3.2-1c-0.6-0.6-0.9-1.7-0.9-3.3V52h-12.8v6.5c0,5.3,1.1,9.1,3.3,11.1s6.2,3,12.1,3h3.7
			c2.3,0,4.6-0.2,6.8-0.8h0.1c1.1-0.3,2.2-0.7,3.1-1.3c0.6-0.3,1.1-0.7,1.6-1.2c2.4-2.2,3.6-5.8,3.6-10.8v-8.1
			C160.6,46.3,160,43.3,158.5,41.3z"/>
		
			<linearGradient id="SVGID_2_" gradientUnits="userSpaceOnUse" x1="153.8502" y1="39.8597" x2="192.3513" y2="39.8597" gradientTransform="matrix(1 0 0 -1 0 81.8898)">
			<stop  offset="0" style="stop-color:#FAB200"/>
			<stop  offset="1" style="stop-color:#F39200"/>
		</linearGradient>
		<path class="st2" d="M189.7,48.9l-4.9-32.3c-0.4-2.5-2.5-4.4-5.1-4.4H163c-0.7,0-1.2,0.5-1.3,1.2l-0.6,3.8c0,0.1,0.1,0.2,0.1,0.3
			c0.5,2.5,0.8,5.1,0.7,7.7v4.7c0,1.6-1.4,3-3,3h-0.1l-0.7,4.5c0.8,0.6,1.5,1.3,2.1,2.1c1.8,2.5,2.7,6,2.7,10.9v8.1
			c0,5.8-1.5,10.1-4.4,12.9c-0.2,0.2-0.4,0.4-0.7,0.6c0.4,0.1,0.8,0.2,1.2,0.2h3.3c2.6,0,4.8-2,5.1-4.6l1.1-10.1h8.8l1.1,10.1
			c0.3,2.6,2.5,4.6,5.1,4.6h3.6c1.4,0,2.7-0.5,3.6-1.4c1.2-1.2,1.8-2.9,1.5-4.5L189.7,48.9z M169.8,47.3l3.2-28.2l3.1,28.2H169.8z
			 M158.5,41.3c-0.2-0.3-0.5-0.6-0.8-0.8L153.9,66c-0.3,1.7,0.3,3.4,1.6,4.5c0.6-0.3,1.1-0.7,1.6-1.2c2.4-2.2,3.6-5.8,3.6-10.8v-8.1
			C160.6,46.3,160,43.3,158.5,41.3L158.5,41.3z"/>
		
			<linearGradient id="SVGID_3_" gradientUnits="userSpaceOnUse" x1="193.3499" y1="38.929" x2="219.5466" y2="38.929" gradientTransform="matrix(1 0 0 -1 0 81.8898)">
			<stop  offset="0" style="stop-color:#FAB200"/>
			<stop  offset="1" style="stop-color:#F39200"/>
		</linearGradient>
		<path class="st3" d="M215.9,61.8c-0.5-0.2-1-0.3-1.5-0.3H212c-2.8,0-5.1-2.3-5.1-5.1c0,0,0,0,0,0V19.3c0-2.9-2.3-5.2-5.2-5.2l0,0
			h-3.1c-2.9,0-5.2,2.3-5.2,5.2c0,0,0,0,0,0v47.4c0,0.9,0.3,1.8,0.8,2.6c0.9,1.6,2.6,2.5,4.4,2.5h15.9c0.5,0,1-0.1,1.5-0.3
			c2.7-0.8,4.2-3.7,3.4-6.4C218.8,63.6,217.5,62.3,215.9,61.8L215.9,61.8z"/>
		
			<linearGradient id="SVGID_4_" gradientUnits="userSpaceOnUse" x1="215.9" y1="40.2048" x2="255.66" y2="40.2048" gradientTransform="matrix(1 0 0 -1 0 81.8898)">
			<stop  offset="0" style="stop-color:#FAB200"/>
			<stop  offset="1" style="stop-color:#F39200"/>
		</linearGradient>
		<path class="st4" d="M215.9,61.8v9.8c2.7-0.8,4.2-3.7,3.4-6.4C218.8,63.6,217.5,62.3,215.9,61.8z M252.9,62
			c-1,0.1-2.1-0.2-2.9-0.8h-13.8c0.3,4,1.4,6.8,3.1,8.4c1.4,1.1,3,1.9,4.7,2.3h11.2V61.6C254.5,61.9,253.7,62,252.9,62L252.9,62z
			 M232.5,61.2h-2.8V46.3h11c-2.2-0.9-4.2-2.4-5.6-4.2c-1.2-1.8-2-3.8-2.3-6h-3.1V22.9h2.7c0.3-4.9,1.6-8.4,3.8-10.7
			c0.1-0.1,0.3-0.2,0.4-0.3l-20.8,0.3v46.3c3.5,0.9,6,4.2,6,7.8c0,2.1-0.8,4-2.3,5.5h17.6c-0.2-0.1-0.4-0.3-0.6-0.4
			C234.3,69.2,232.9,65.9,232.5,61.2L232.5,61.2z M254.1,11.5l-6.8,0.1h-0.1c-3.6,0.3-6.3,1.3-8,3s-2.7,4.5-2.9,8.2H250
			c0.1-0.1,0.2-0.3,0.3-0.3c0.8-0.7,1.9-1,3-0.9c0.8,0,1.5,0.1,2.2,0.4l0.2-10.5v-0.1L254.1,11.5z M236.5,36.1
			c0.2,1.6,0.8,3.2,1.8,4.6c0.8,1.1,1.9,2,3.1,2.6v-7.2H236.5z"/>
		
			<linearGradient id="SVGID_5_" gradientUnits="userSpaceOnUse" x1="236.05" y1="39.8394" x2="269.4094" y2="39.8394" gradientTransform="matrix(1 0 0 -1 0 81.8898)">
			<stop  offset="0" style="stop-color:#FAB200"/>
			<stop  offset="1" style="stop-color:#F39200"/>
		</linearGradient>
		<path class="st5" d="M236.5,36.1c0.2,1.6,0.8,3.2,1.8,4.6c0.8,1.1,1.9,2,3.1,2.6v-7.2H236.5z M268.8,18.5c-0.3-1.3-1-2.6-2-3.6
			c-1.3-1.3-3-2.2-4.8-2.6c-1.3-0.4-2.6-0.6-4-0.7c-0.7-0.1-1.4-0.1-2.3-0.1c-0.3-0.1-0.7-0.1-1-0.1H250c-1,0-1.9,0.1-2.7,0.1h-0.1
			c-3.6,0.3-6.3,1.3-8,3s-2.7,4.5-2.9,8.2c-0.1,0.8-0.1,1.6-0.1,2.6h13.4c0-0.9,0.1-1.8,0.5-2.6c0.1-0.1,0.2-0.3,0.3-0.3
			c0.8-0.7,1.9-1,3-0.9c0.8,0,1.5,0.1,2.2,0.4c0.3,0.1,0.6,0.3,0.8,0.5c0.4,0.6,0.6,1.2,0.6,1.9c0.1,0.6,0.1,1.2,0.1,1.8v3.8h12.4
			v-4.7C269.5,23.1,269.3,20.8,268.8,18.5L268.8,18.5z M256.9,59c0,0.7-0.3,1.5-0.7,2.1c-0.3,0.2-0.6,0.4-0.9,0.5
			c-0.8,0.2-1.6,0.4-2.4,0.3c-1,0.1-2.1-0.2-2.9-0.8c-0.1,0-0.1-0.1-0.2-0.1c-0.7-0.9-1-2.1-0.9-3.2h-12.8v0.7c0,1,0.1,1.8,0.1,2.7
			c0.3,4,1.4,6.8,3.1,8.4c1.4,1.1,3,1.9,4.7,2.3c2.5,0.5,5,0.8,7.5,0.8h3.6c0.8,0,1.5,0,2.2-0.1c0.1-0.3,0.2-0.7,0.2-1V60.8
			C257.6,60.1,257.4,59.5,256.9,59z"/>
		<path class="st6" d="M321.8,0l-3.7,1c-5.6,1.5-11.5,1.2-16.9-1l0,0l-11.6,40.2c-0.8,2.7,0.8,5.6,3.5,6.4c0.5,0.1,0.9,0.2,1.4,0.2
			h0.1c2.8,0,5.1,2.3,5.1,5.1c0,0.6-0.1,1.2-0.3,1.7l-10,28l25.4-38.8c1.6-2.4,0.9-5.6-1.5-7.1c-0.8-0.5-1.8-0.8-2.8-0.8l0,0
			c-2.8,0-5.1-2.3-5.1-5.1c0-0.9,0.2-1.8,0.7-2.6L321.8,0z"/>
		
			<linearGradient id="SVGID_6_" gradientUnits="userSpaceOnUse" x1="126.35" y1="39.8223" x2="160.63" y2="39.8223" gradientTransform="matrix(1 0 0 -1 0 81.8898)">
			<stop  offset="0" style="stop-color:#FAB200"/>
			<stop  offset="1" style="stop-color:#F39200"/>
		</linearGradient>
		<path class="st7" d="M158.5,41.3c-0.2-0.3-0.5-0.6-0.8-0.8c-1-1-2.1-1.8-3.4-2.3c-1.2-0.6-2.4-1-3.6-1.4c-0.8-0.2-2-0.5-3.4-0.9
			c-4.9-1.3-7.4-3.4-7.4-6.3v-3.8c0-1.6,0.2-2.7,0.8-3.2c0.8-0.7,1.9-1,3-0.9c1.5,0,2.5,0.3,3,1c0.6,1.1,0.9,2.4,0.8,3.7v3.7h11.9
			l0.4-2.9v-1.8c0.1-2.3-0.1-4.7-0.6-6.9c-0.3-1.1-0.7-2-1.4-2.9c-0.1-0.3-0.3-0.5-0.5-0.7c-1.4-1.3-3-2.2-4.9-2.6
			c-2.6-0.6-5.3-0.9-8-0.8h-4c-5.1,0-8.8,1-10.8,3.1s-3.1,5.8-3.1,11.2v5.5c0,4.2,0.7,7.3,2.1,9.3c1.4,1.9,4.1,3.5,8,4.6
			c0.9,0.3,2.1,0.5,3.5,0.9c3.3,0.7,5.4,1.6,6.3,2.7c0.4,0.5,0.7,1,0.8,1.6c0.2,0.9,0.3,1.9,0.3,2.9v4.2c0,1.7-0.3,2.9-0.9,3.5
			s-1.6,0.9-3.2,0.9c-1.1,0.1-2.3-0.3-3.2-1c-0.6-0.6-0.9-1.7-0.9-3.3V52h-12.8v6.5c0,5.3,1.1,9.1,3.3,11.1s6.2,3,12.1,3h3.7
			c2.3,0,4.6-0.2,6.8-0.8h0.1c1.1-0.3,2.2-0.7,3.1-1.3c0.6-0.3,1.1-0.7,1.6-1.2c2.4-2.2,3.6-5.8,3.6-10.8v-8.1
			C160.6,46.3,160,43.3,158.5,41.3z"/>
		
			<linearGradient id="SVGID_7_" gradientUnits="userSpaceOnUse" x1="150.1736" y1="39.8597" x2="194.6681" y2="39.8597" gradientTransform="matrix(1 0 0 -1 0 81.8898)">
			<stop  offset="0" style="stop-color:#FAB200"/>
			<stop  offset="1" style="stop-color:#F39200"/>
		</linearGradient>
		<path class="st8" d="M189.7,48.9l-4.9-32.3c-0.4-2.5-2.5-4.4-5.1-4.4H163c-0.7,0-1.2,0.5-1.3,1.2l-0.6,3.8c0,0.1,0.1,0.2,0.1,0.3
			c0.5,2.5,0.8,5.1,0.7,7.7v4.7c0,1.6-1.4,3-3,3h-0.1l-0.7,4.5c0.8,0.6,1.5,1.3,2.1,2.1c1.8,2.5,2.7,6,2.7,10.9v8.1
			c0,5.8-1.5,10.1-4.4,12.9c-0.2,0.2-0.4,0.4-0.7,0.6c0.4,0.1,0.8,0.2,1.2,0.2h3.3c2.6,0,4.8-2,5.1-4.6l1.1-10.1h8.8l1.1,10.1
			c0.3,2.6,2.5,4.6,5.1,4.6h3.6c1.4,0,2.7-0.5,3.6-1.4c1.2-1.2,1.8-2.9,1.5-4.5L189.7,48.9z M169.8,47.3l3.2-28.2l3.1,28.2H169.8z
			 M159,18.5c-0.3-1.1-0.7-2-1.4-2.9l-2.1,14.5h3.8l0.4-2.9v-1.8C159.8,23.1,159.6,20.8,159,18.5L159,18.5z M158.5,41.3
			c-0.2-0.3-0.5-0.6-0.8-0.8c-1-1-2.1-1.8-3.4-2.3l-4,27c-0.3,2.3,0.3,4.7,1.9,6.5l0.1,0.1h0.1c1.1-0.3,2.2-0.7,3.1-1.3
			c0.6-0.3,1.1-0.7,1.6-1.2c2.4-2.2,3.6-5.8,3.6-10.8v-8.1C160.6,46.3,160,43.3,158.5,41.3z M194.6,65.1l-1.2-8.1v9.7
			c0,0.9,0.3,1.8,0.8,2.6C194.6,68,194.8,66.6,194.6,65.1L194.6,65.1z"/>
		
			<linearGradient id="SVGID_8_" gradientUnits="userSpaceOnUse" x1="189.7" y1="22.2348" x2="192.3713" y2="22.2348" gradientTransform="matrix(1 0 0 -1 0 81.8898)">
			<stop  offset="0" style="stop-color:#FAB200"/>
			<stop  offset="1" style="stop-color:#F39200"/>
		</linearGradient>
		<path class="st9" d="M192.3,65.9c0.3,1.7-0.3,3.4-1.5,4.5c-0.7-1.2-1.1-2.6-1.1-4V48.9L192.3,65.9z"/>
		
			<linearGradient id="SVGID_9_" gradientUnits="userSpaceOnUse" x1="193.3399" y1="38.929" x2="219.5303" y2="38.929" gradientTransform="matrix(1 0 0 -1 0 81.8898)">
			<stop  offset="0" style="stop-color:#FAB200"/>
			<stop  offset="1" style="stop-color:#F39200"/>
		</linearGradient>
		<path class="st10" d="M219.5,66.7c0,2.2-1.5,4.2-3.6,4.9c-0.5,0.2-1,0.3-1.5,0.3h-15.9c-1.8,0-3.5-1-4.4-2.5
			c-0.5-0.8-0.8-1.7-0.8-2.6V19.3c0-2.9,2.3-5.2,5.2-5.2l0,0h3.1c2.9,0,5.2,2.3,5.2,5.2c0,0,0,0,0,0v37.1c0,2.8,2.3,5.1,5.1,5.1
			c0,0,0,0,0,0h2.4c0.5,0,1,0.1,1.5,0.3C218.1,62.4,219.6,64.4,219.5,66.7z"/>
		
			<linearGradient id="SVGID_10_" gradientUnits="userSpaceOnUse" x1="212.2539" y1="15.2048" x2="219.5302" y2="15.2048" gradientTransform="matrix(1 0 0 -1 0 81.8898)">
			<stop  offset="0" style="stop-color:#FAB200"/>
			<stop  offset="1" style="stop-color:#F39200"/>
		</linearGradient>
		<path class="st11" d="M219.5,66.7c0,2.2-1.5,4.2-3.6,4.9c-0.5,0.2-1,0.3-1.5,0.3h-2.1c-0.1-0.1-0.1-0.2-0.1-0.3v-10h2.1
			c0.5,0,1,0.1,1.5,0.3C218.1,62.4,219.5,64.4,219.5,66.7z"/>
		
			<linearGradient id="SVGID_11_" gradientUnits="userSpaceOnUse" x1="236.05" y1="16.6982" x2="257.5835" y2="16.6982" gradientTransform="matrix(1 0 0 -1 0 81.8898)">
			<stop  offset="0" style="stop-color:#FAB200"/>
			<stop  offset="1" style="stop-color:#F39200"/>
		</linearGradient>
		<path class="st12" d="M257.6,60.8v10.7c0,0.3-0.1,0.7-0.2,1c-0.7,0.1-1.4,0.1-2.2,0.1h-3.6c-2.5,0-5-0.2-7.5-0.8
			c-1.7-0.4-3.4-1.2-4.7-2.3c-1.8-1.6-2.9-4.4-3.1-8.4c-0.1-0.8-0.1-1.7-0.1-2.7v-0.7h12.8c-0.1,1.1,0.2,2.3,0.9,3.2
			c0.1,0.1,0.1,0.1,0.2,0.1c0.9,0.6,1.9,0.9,2.9,0.8c0.8,0,1.6-0.1,2.4-0.3c0.3-0.1,0.6-0.3,0.9-0.5c0.4-0.6,0.7-1.3,0.7-2.1
			C257.4,59.5,257.6,60.1,257.6,60.8z"/>
		
			<linearGradient id="SVGID_12_" gradientUnits="userSpaceOnUse" x1="236.47" y1="42.2248" x2="241.33" y2="42.2248" gradientTransform="matrix(1 0 0 -1 0 81.8898)">
			<stop  offset="0" style="stop-color:#FAB200"/>
			<stop  offset="1" style="stop-color:#F39200"/>
		</linearGradient>
		<path class="st13" d="M236.5,36.1h4.9v7.2c-1.2-0.6-2.3-1.5-3.1-2.6C237.3,39.3,236.7,37.7,236.5,36.1z"/>
		
			<linearGradient id="SVGID_13_" gradientUnits="userSpaceOnUse" x1="215.9" y1="40.0298" x2="240.78" y2="40.0298" gradientTransform="matrix(1 0 0 -1 0 81.8898)">
			<stop  offset="0" style="stop-color:#FAB200"/>
			<stop  offset="1" style="stop-color:#F39200"/>
		</linearGradient>
		<path class="st14" d="M229.8,46.3v14.8h2.8c0.3,4.7,1.7,8.1,4.1,10.3c0.2,0.2,0.4,0.3,0.6,0.4h-17.6c1.5-1.5,2.3-3.4,2.3-5.5
			c0-3.7-2.5-6.9-6-7.8V12.2l20.8-0.3c-0.2,0.1-0.3,0.2-0.4,0.3c-2.3,2.3-3.5,5.8-3.8,10.7c-0.1,0.8-0.1,1.7-0.1,2.6H232v7.2h0.5
			c0,1.1,0.1,2.3,0.3,3.4c0.3,2.2,1.1,4.2,2.3,6c1.5,1.9,3.4,3.4,5.6,4.2L229.8,46.3z"/>
		
			<linearGradient id="SVGID_14_" gradientUnits="userSpaceOnUse" x1="236.05" y1="63.3598" x2="257.93" y2="63.3598" gradientTransform="matrix(1 0 0 -1 0 81.8898)">
			<stop  offset="0" style="stop-color:#FAB200"/>
			<stop  offset="1" style="stop-color:#F39200"/>
		</linearGradient>
		<path class="st15" d="M257.9,11.7l-0.2,10.9c0,0.8-0.3,1.5-0.8,2c0-0.7-0.3-1.3-0.6-1.9c-0.2-0.3-0.5-0.4-0.8-0.5
			c-0.7-0.3-1.4-0.4-2.2-0.4c-1.1-0.1-2.2,0.2-3,0.9c-0.1,0.1-0.1,0.2-0.3,0.3c-0.3,0.8-0.5,1.7-0.5,2.6h-13.4c0-1,0.1-1.8,0.1-2.6
			c0.3-3.8,1.3-6.5,2.9-8.2s4.4-2.7,8-3h0.1c0.8-0.1,1.7-0.1,2.7-0.1h5.7v0.1C256.5,11.6,257.2,11.6,257.9,11.7z"/>
		
			<linearGradient id="SVGID_15_" gradientUnits="userSpaceOnUse" x1="236.05" y1="39.8382" x2="269.4094" y2="39.8382" gradientTransform="matrix(1 0 0 -1 0 81.8898)">
			<stop  offset="0" style="stop-color:#FAB200"/>
			<stop  offset="1" style="stop-color:#F39200"/>
		</linearGradient>
		<path class="st16" d="M236.5,36.1c0.2,1.6,0.8,3.2,1.8,4.6c0.8,1.1,1.9,2,3.1,2.6v-7.2H236.5z M268.8,18.5c-0.3-1.3-1-2.6-2-3.6
			c-1.3-1.3-3-2.2-4.8-2.6c-1.3-0.4-2.6-0.6-4-0.7c-0.7-0.1-1.4-0.1-2.3-0.1v-0.1H250c-1,0-1.9,0.1-2.7,0.1h-0.1
			c-3.6,0.3-6.3,1.3-8,3s-2.7,4.5-2.9,8.2c-0.1,0.8-0.1,1.6-0.1,2.6h13.4c0-0.9,0.1-1.8,0.5-2.6c0.1-0.1,0.2-0.3,0.3-0.3
			c0.8-0.7,1.9-1,3-0.9c0.8,0,1.5,0.1,2.2,0.4c0.3,0.1,0.6,0.3,0.8,0.5c0.4,0.6,0.6,1.2,0.6,1.9c0.1,0.6,0.1,1.2,0.1,1.8v3.8h12.4
			v-4.7C269.5,23.1,269.3,20.8,268.8,18.5L268.8,18.5z M256.9,59c0,0.7-0.3,1.5-0.7,2.1c-0.3,0.2-0.6,0.4-0.9,0.5
			c-0.8,0.2-1.6,0.4-2.4,0.3c-1,0.1-2.1-0.2-2.9-0.8c-0.1,0-0.1-0.1-0.2-0.1c-0.7-0.9-1-2.1-0.9-3.2h-12.8v0.7c0,1,0.1,1.8,0.1,2.7
			c0.3,4,1.4,6.8,3.1,8.4c1.4,1.1,3,1.9,4.7,2.3c2.5,0.5,5,0.8,7.5,0.8h3.6c0.8,0,1.5,0,2.2-0.1c0.1-0.3,0.2-0.7,0.2-1V60.8
			C257.6,60.1,257.4,59.5,256.9,59z"/>
		
			<linearGradient id="SVGID_16_" gradientUnits="userSpaceOnUse" x1="236.0464" y1="32.8648" x2="270.34" y2="32.8648" gradientTransform="matrix(1 0 0 -1 0 81.8898)">
			<stop  offset="0" style="stop-color:#FAB200"/>
			<stop  offset="1" style="stop-color:#F39200"/>
		</linearGradient>
		<path class="st17" d="M270.3,50.5v8.1c0,4.9-1.2,8.6-3.5,10.8c-2.1,1.9-5.2,3-9.5,3.2c0.1-0.3,0.2-0.7,0.2-1V60.8
			c0-0.7-0.2-1.3-0.7-1.8c0.1-0.5,0.2-1,0.1-1.4v-4.2c0.1-1,0-1.9-0.3-2.9c-0.2-0.6-0.4-1.1-0.8-1.6c-1-1.1-3-2-6.3-2.7
			c-1.5-0.3-2.7-0.6-3.5-0.9c-0.9-0.2-1.8-0.5-2.6-0.9v-8.6c0-1.6-1.3-3-2.9-3h-4.5c-0.1-0.4-0.1-0.9-0.1-1.3v-5.9h13.4v4.1
			c0,2.9,2.5,5,7.5,6.3c1.4,0.3,2.5,0.7,3.4,0.9c3.8,1.1,6.4,2.6,7.9,4.5S270.3,46.3,270.3,50.5z"/>
	</g>
</g>
</svg>
