<svg xmlns="http://www.w3.org/2000/svg" xmlns:xlink="http://www.w3.org/1999/xlink" viewBox="0 0 318.81 81.64"><defs><style>.cls-1{fill:#333;}.cls-2{fill:url(#linear-gradient);}.cls-3{fill:url(#linear-gradient-2);}.cls-4{fill:url(#linear-gradient-3);}.cls-5{fill:url(#linear-gradient-4);}.cls-6{fill:url(#linear-gradient-5);}.cls-7{fill:#f49739;}.cls-8{fill:url(#linear-gradient-7);}.cls-9{fill:url(#linear-gradient-8);}.cls-10{fill:url(#linear-gradient-10);}.cls-11{fill:url(#linear-gradient-11);}.cls-12{fill:url(#linear-gradient-12);}.cls-13{fill:url(#linear-gradient-13);}.cls-14{fill:url(#linear-gradient-14);}.cls-15{fill:url(#linear-gradient-16);}</style><linearGradient id="linear-gradient" x1="123.35" y1="42.06" x2="157.63" y2="42.06" gradientUnits="userSpaceOnUse"><stop offset="0" stop-color="#fab200"/><stop offset="1" stop-color="#f39200"/></linearGradient><linearGradient id="linear-gradient-2" x1="150.85" y1="42.03" x2="189.37" y2="42.03" xlink:href="#linear-gradient"/><linearGradient id="linear-gradient-3" x1="190.34" y1="42.96" x2="216.53" y2="42.96" xlink:href="#linear-gradient"/><linearGradient id="linear-gradient-4" x1="212.9" y1="41.69" x2="252.66" y2="41.69" xlink:href="#linear-gradient"/><linearGradient id="linear-gradient-5" x1="233.05" y1="42.06" x2="266.38" y2="42.06" xlink:href="#linear-gradient"/><linearGradient id="linear-gradient-7" x1="147.19" y1="42.03" x2="191.66" y2="42.03" xlink:href="#linear-gradient"/><linearGradient id="linear-gradient-8" x1="186.7" y1="59.65" x2="189.37" y2="59.65" xlink:href="#linear-gradient"/><linearGradient id="linear-gradient-10" x1="209.26" y1="66.68" x2="216.53" y2="66.68" xlink:href="#linear-gradient"/><linearGradient id="linear-gradient-11" x1="233.05" y1="65.21" x2="254.58" y2="65.21" xlink:href="#linear-gradient"/><linearGradient id="linear-gradient-12" x1="233.47" y1="39.66" x2="238.33" y2="39.66" xlink:href="#linear-gradient"/><linearGradient id="linear-gradient-13" x1="212.9" y1="41.86" x2="237.78" y2="41.86" xlink:href="#linear-gradient"/><linearGradient id="linear-gradient-14" x1="233.05" y1="18.51" x2="254.93" y2="18.51" xlink:href="#linear-gradient"/><linearGradient id="linear-gradient-16" x1="233.05" y1="49.02" x2="267.34" y2="49.02" xlink:href="#linear-gradient"/></defs><g id="Layer_2" data-name="Layer 2"><g id="Layer_1-2" data-name="Layer 1"><path class="cls-1" d="M0,12.2V71.86H24.07l1.57-10.7H13.92V46.35H25.44V36.07H13.92V22.9H35.31V12.2Z"/><path class="cls-1" d="M62.05,57.11,56.84,22.9,55.2,12.2H33L31.4,22.9,25.64,61.16h1.79v10.7H38l1.64-14.68h8.78l1.64,14.68H64.31Zm-21.19-9.8,3.3-28.18,3,28.18Z"/><path class="cls-1" d="M90.64,21.67V12.2H52.32V22.9H76.11L62.05,57.11l-1.64,4v10.7H90.64V61.16H74.53L90.3,22.49Z"/><path class="cls-1" d="M104.15,61.16V46.35h11.59V36.07H104.15V22.9h12.34V12.2H90.3V71.86h27.36V61.16Z"/><path class="cls-2" d="M155.51,41.34a5,5,0,0,0-.83-.82,9.75,9.75,0,0,0-3.42-2.33,20.1,20.1,0,0,0-3.64-1.37c-.82-.21-2-.55-3.43-.89-4.93-1.3-7.4-3.36-7.4-6.31V25.78c0-1.58.2-2.67.75-3.22a4.16,4.16,0,0,1,3-.89c1.51,0,2.54.34,3,1a6.45,6.45,0,0,1,.75,3.7V30.1h11.93l.41-2.88V25.44a27.42,27.42,0,0,0-.62-6.93,7.12,7.12,0,0,0-1.44-2.88,1.45,1.45,0,0,0-.48-.68,10.34,10.34,0,0,0-4.86-2.61,31.78,31.78,0,0,0-8-.82h-4c-5.14,0-8.78,1-10.84,3.15s-3.08,5.83-3.08,11.18V31.4c0,4.19.68,7.34,2.12,9.26s4.12,3.5,8,4.59c.89.28,2.06.55,3.49.89,3.3.69,5.42,1.58,6.31,2.68a4.8,4.8,0,0,1,.83,1.64,14.07,14.07,0,0,1,.27,2.88v4.25c0,1.72-.27,2.88-.89,3.5s-1.65.89-3.22.89a4.34,4.34,0,0,1-3.16-1c-.62-.61-.89-1.71-.89-3.29V52H123.35v6.52c0,5.34,1.1,9.12,3.29,11.1s6.24,3,12.14,3h3.7a24.5,24.5,0,0,0,6.79-.82h.07a12.33,12.33,0,0,0,3.15-1.3,9.81,9.81,0,0,0,1.58-1.17c2.4-2.19,3.56-5.83,3.56-10.77V50.46C157.63,46.35,157,43.26,155.51,41.34Z"/><path class="cls-3" d="M186.7,48.89l-4.93-32.3a5.16,5.16,0,0,0-5.08-4.39H160a1.28,1.28,0,0,0-1.3,1.17l-.55,3.77c0,.07.07.21.07.28a30.72,30.72,0,0,1,.68,7.67v4.67a3,3,0,0,1-3,2.95h-.07l-.69,4.45a8.4,8.4,0,0,1,2.06,2.06c1.78,2.47,2.67,6,2.67,10.9v8.09c0,5.76-1.5,10.15-4.45,12.89a4.75,4.75,0,0,1-.69.55,3.51,3.51,0,0,0,1.24.21h3.29a5.19,5.19,0,0,0,5.14-4.6l1.1-10.08h8.84l1.1,10.08a5.24,5.24,0,0,0,5.14,4.6h3.57a5.12,5.12,0,0,0,3.63-1.44,5.22,5.22,0,0,0,1.51-4.53Zm-19.88-1.58L170,19.13l3.09,28.18Zm-11.31-6a5,5,0,0,0-.83-.82L150.91,66a5.11,5.11,0,0,0,1.58,4.53,9.81,9.81,0,0,0,1.58-1.17c2.4-2.19,3.56-5.83,3.56-10.77V50.46C157.63,46.35,157,43.26,155.51,41.34Z"/><path class="cls-4" d="M212.9,61.78a3.63,3.63,0,0,0-1.51-.28H209a5.14,5.14,0,0,1-5.15-5.14V19.27a5.21,5.21,0,0,0-5.21-5.21h-3.08a5.21,5.21,0,0,0-5.21,5.21V66.71a4.83,4.83,0,0,0,.75,2.61,5.13,5.13,0,0,0,4.39,2.54h15.91a3.63,3.63,0,0,0,1.51-.28,5.12,5.12,0,0,0,0-9.8Z"/><path class="cls-5" d="M212.9,61.78v9.8a5.12,5.12,0,0,0,0-9.8Zm37,.2a4.46,4.46,0,0,1-2.95-.82H233.19c.28,4,1.37,6.79,3.15,8.43a11.34,11.34,0,0,0,4.74,2.27h11.24V61.64A7.33,7.33,0,0,1,249.92,62Zm-20.36-.82h-2.81V46.35h11a13.26,13.26,0,0,1-5.62-4.25,13.84,13.84,0,0,1-2.33-6h-3.08V22.9h2.74c.34-4.87,1.58-8.36,3.84-10.7a2.05,2.05,0,0,1,.41-.34l-20.84.34V58.55a8.06,8.06,0,0,1,6,7.82,7.67,7.67,0,0,1-2.26,5.49h17.62a4.62,4.62,0,0,1-.55-.41C231.27,69.25,229.9,65.89,229.56,61.16Zm21.53-49.64-6.79.14h-.14c-3.63.27-6.31,1.3-8,3s-2.67,4.46-2.95,8.23H247c.14-.14.21-.27.28-.34a4.15,4.15,0,0,1,3-.89,4.94,4.94,0,0,1,2.2.41l.2-10.49v-.07ZM233.47,36.07a10.91,10.91,0,0,0,1.78,4.59,8.91,8.91,0,0,0,3.08,2.6V36.07Z"/><path class="cls-6" d="M233.47,36.07a10.91,10.91,0,0,0,1.78,4.59,8.91,8.91,0,0,0,3.08,2.6V36.07Zm32.36-17.56a7.89,7.89,0,0,0-2-3.56A10,10,0,0,0,259,12.34a21.22,21.22,0,0,0-4-.68c-.69-.07-1.44-.07-2.27-.07a5,5,0,0,0-1-.07H247c-1,0-1.85.07-2.67.14h-.14c-3.63.27-6.31,1.3-8,3s-2.67,4.46-2.95,8.23c-.07.82-.14,1.65-.14,2.61h13.44A6.13,6.13,0,0,1,247,22.9c.14-.14.21-.27.28-.34a4.15,4.15,0,0,1,3-.89,4.94,4.94,0,0,1,2.2.41,1.76,1.76,0,0,1,.82.55,4,4,0,0,1,.62,1.92,12.4,12.4,0,0,1,.13,1.78V30.1h12.35V25.44A32.88,32.88,0,0,0,265.83,18.51ZM253.9,59a3.65,3.65,0,0,1-.69,2.06,2.76,2.76,0,0,1-.89.55,7.33,7.33,0,0,1-2.4.34,4.46,4.46,0,0,1-2.95-.82c-.07,0-.13-.07-.2-.14a4.5,4.5,0,0,1-.89-3.22H233.05v.69c0,1,.07,1.85.14,2.67.28,4,1.37,6.79,3.15,8.43a11.34,11.34,0,0,0,4.74,2.27,33,33,0,0,0,7.47.75h3.63c.76,0,1.51,0,2.2-.07a2.86,2.86,0,0,0,.2-1V60.82A2.43,2.43,0,0,0,253.9,59Z"/><path class="cls-7" d="M318.81,0l-3.7,1a26.24,26.24,0,0,1-16.89-1h0l-11.6,40.19a5.13,5.13,0,0,0,4.93,6.56h.13a5.13,5.13,0,0,1,4.83,6.86l-10,28,25.36-38.8a5.13,5.13,0,0,0-4.3-7.94h0a5.14,5.14,0,0,1-4.45-7.7Z"/><path class="cls-2" d="M155.51,41.34a5,5,0,0,0-.83-.82,9.75,9.75,0,0,0-3.42-2.33,20.1,20.1,0,0,0-3.64-1.37c-.82-.21-2-.55-3.43-.89-4.93-1.3-7.4-3.36-7.4-6.31V25.78c0-1.58.2-2.67.75-3.22a4.16,4.16,0,0,1,3-.89c1.51,0,2.54.34,3,1a6.45,6.45,0,0,1,.75,3.7V30.1h11.93l.41-2.88V25.44a27.42,27.42,0,0,0-.62-6.93,7.12,7.12,0,0,0-1.44-2.88,1.45,1.45,0,0,0-.48-.68,10.34,10.34,0,0,0-4.86-2.61,31.78,31.78,0,0,0-8-.82h-4c-5.14,0-8.78,1-10.84,3.15s-3.08,5.83-3.08,11.18V31.4c0,4.19.68,7.34,2.12,9.26s4.12,3.5,8,4.59c.89.28,2.06.55,3.49.89,3.3.69,5.42,1.58,6.31,2.68a4.8,4.8,0,0,1,.83,1.64,14.07,14.07,0,0,1,.27,2.88v4.25c0,1.72-.27,2.88-.89,3.5s-1.65.89-3.22.89a4.34,4.34,0,0,1-3.16-1c-.62-.61-.89-1.71-.89-3.29V52H123.35v6.52c0,5.34,1.1,9.12,3.29,11.1s6.24,3,12.14,3h3.7a24.5,24.5,0,0,0,6.79-.82h.07a12.33,12.33,0,0,0,3.15-1.3,9.81,9.81,0,0,0,1.58-1.17c2.4-2.19,3.56-5.83,3.56-10.77V50.46C157.63,46.35,157,43.26,155.51,41.34Z"/><path class="cls-8" d="M186.7,48.89l-4.93-32.3a5.16,5.16,0,0,0-5.08-4.39H160a1.28,1.28,0,0,0-1.3,1.17l-.55,3.77c0,.07.07.21.07.28a30.72,30.72,0,0,1,.68,7.67v4.67a3,3,0,0,1-3,2.95h-.07l-.69,4.45a8.4,8.4,0,0,1,2.06,2.06c1.78,2.47,2.67,6,2.67,10.9v8.09c0,5.76-1.5,10.15-4.45,12.89a4.75,4.75,0,0,1-.69.55,3.51,3.51,0,0,0,1.24.21h3.29a5.19,5.19,0,0,0,5.14-4.6l1.1-10.08h8.84l1.1,10.08a5.24,5.24,0,0,0,5.14,4.6h3.57a5.12,5.12,0,0,0,3.63-1.44,5.22,5.22,0,0,0,1.51-4.53Zm-19.88-1.58L170,19.13l3.09,28.18Zm-10.77-28.8a7.12,7.12,0,0,0-1.44-2.88L152.49,30.1h3.77l.41-2.88V25.44A27.42,27.42,0,0,0,156.05,18.51Zm-.54,22.83a5,5,0,0,0-.83-.82,9.75,9.75,0,0,0-3.42-2.33l-4,27a8.27,8.27,0,0,0,1.85,6.51l.14.14h.07a12.33,12.33,0,0,0,3.15-1.3,9.81,9.81,0,0,0,1.58-1.17c2.4-2.19,3.56-5.83,3.56-10.77V50.46C157.63,46.35,157,43.26,155.51,41.34Zm36.06,23.8-1.23-8.09v9.66a4.83,4.83,0,0,0,.75,2.61A7.8,7.8,0,0,0,191.57,65.14Z"/><path class="cls-9" d="M189.31,65.89a5.22,5.22,0,0,1-1.51,4.53,7.91,7.91,0,0,1-1.1-4V48.89Z"/><path class="cls-4" d="M216.53,66.71a5.07,5.07,0,0,1-3.63,4.87,3.63,3.63,0,0,1-1.51.28H195.48a5.13,5.13,0,0,1-4.39-2.54,4.83,4.83,0,0,1-.75-2.61V19.27a5.21,5.21,0,0,1,5.21-5.21h3.08a5.21,5.21,0,0,1,5.21,5.21V56.36A5.14,5.14,0,0,0,209,61.5h2.4a3.63,3.63,0,0,1,1.51.28A5.09,5.09,0,0,1,216.53,66.71Z"/><path class="cls-10" d="M216.53,66.71a5.07,5.07,0,0,1-3.63,4.87,3.63,3.63,0,0,1-1.51.28h-2.06a.52.52,0,0,1-.07-.35v-10h2.13a3.63,3.63,0,0,1,1.51.28A5.09,5.09,0,0,1,216.53,66.71Z"/><path class="cls-11" d="M254.58,60.82V71.51a2.86,2.86,0,0,1-.2,1c-.69.07-1.44.07-2.2.07h-3.63a33,33,0,0,1-7.47-.75,11.34,11.34,0,0,1-4.74-2.27c-1.78-1.64-2.87-4.45-3.15-8.43-.07-.82-.14-1.71-.14-2.67V57.8h12.83a4.5,4.5,0,0,0,.89,3.22c.07.07.13.14.2.14a4.46,4.46,0,0,0,2.95.82,7.33,7.33,0,0,0,2.4-.34,2.76,2.76,0,0,0,.89-.55A3.65,3.65,0,0,0,253.9,59,2.43,2.43,0,0,1,254.58,60.82Z"/><path class="cls-12" d="M233.47,36.07h4.86v7.19a8.91,8.91,0,0,1-3.08-2.6A10.91,10.91,0,0,1,233.47,36.07Z"/><path class="cls-13" d="M226.75,46.35V61.16h2.81c.34,4.73,1.71,8.09,4.11,10.29a4.62,4.62,0,0,0,.55.41H216.6a7.67,7.67,0,0,0,2.26-5.49,8.06,8.06,0,0,0-6-7.82V12.2l20.84-.34a2.05,2.05,0,0,0-.41.34c-2.26,2.34-3.5,5.83-3.84,10.7-.07.82-.07,1.71-.07,2.61H229v7.2h.48a17.36,17.36,0,0,0,.34,3.36,13.84,13.84,0,0,0,2.33,6,13.26,13.26,0,0,0,5.62,4.25Z"/><path class="cls-14" d="M254.93,11.66l-.21,10.9a2.75,2.75,0,0,1-.82,2,4,4,0,0,0-.62-1.92,1.76,1.76,0,0,0-.82-.55,4.94,4.94,0,0,0-2.2-.41,4.15,4.15,0,0,0-3,.89c-.07.07-.14.2-.28.34a6.13,6.13,0,0,0-.48,2.61H233.05c0-1,.07-1.79.14-2.61.28-3.77,1.3-6.51,2.95-8.23s4.39-2.74,8-3h.14c.82-.07,1.71-.14,2.67-.14h5.69v.07C253.49,11.59,254.24,11.59,254.93,11.66Z"/><path class="cls-6" d="M233.47,36.07a10.91,10.91,0,0,0,1.78,4.59,8.91,8.91,0,0,0,3.08,2.6V36.07Zm32.36-17.56a7.89,7.89,0,0,0-2-3.56A10,10,0,0,0,259,12.34a21.22,21.22,0,0,0-4-.68c-.69-.07-1.44-.07-2.27-.07v-.07H247c-1,0-1.85.07-2.67.14h-.14c-3.63.27-6.31,1.3-8,3s-2.67,4.46-2.95,8.23c-.07.82-.14,1.65-.14,2.61h13.44A6.13,6.13,0,0,1,247,22.9c.14-.14.21-.27.28-.34a4.15,4.15,0,0,1,3-.89,4.94,4.94,0,0,1,2.2.41,1.76,1.76,0,0,1,.82.55,4,4,0,0,1,.62,1.92,12.4,12.4,0,0,1,.13,1.78V30.1h12.35V25.44A32.88,32.88,0,0,0,265.83,18.51ZM253.9,59a3.65,3.65,0,0,1-.69,2.06,2.76,2.76,0,0,1-.89.55,7.33,7.33,0,0,1-2.4.34,4.46,4.46,0,0,1-2.95-.82c-.07,0-.13-.07-.2-.14a4.5,4.5,0,0,1-.89-3.22H233.05v.69c0,1,.07,1.85.14,2.67.28,4,1.37,6.79,3.15,8.43a11.34,11.34,0,0,0,4.74,2.27,33,33,0,0,0,7.47.75h3.63c.76,0,1.51,0,2.2-.07a2.86,2.86,0,0,0,.2-1V60.82A2.43,2.43,0,0,0,253.9,59Z"/><path class="cls-15" d="M267.34,50.46v8.09c0,4.94-1.17,8.58-3.5,10.77-2.06,1.92-5.21,3-9.46,3.22a2.86,2.86,0,0,0,.2-1V60.82A2.43,2.43,0,0,0,253.9,59a4.91,4.91,0,0,0,.13-1.44V53.34a10,10,0,0,0-.27-2.88,6.12,6.12,0,0,0-.75-1.64c-1-1.1-3-2-6.31-2.68-1.51-.34-2.68-.61-3.5-.89a18.74,18.74,0,0,1-2.6-.89V35.72a3,3,0,0,0-2.95-3h-4.53a7.85,7.85,0,0,1-.07-1.31V25.51h13.44v4.11c0,2.95,2.47,5,7.48,6.31,1.37.34,2.53.68,3.36.89,3.84,1.1,6.44,2.61,7.88,4.52S267.34,46.35,267.34,50.46Z"/></g></g></svg>